<?xml version="1.0" standalone="no"?>
<!DOCTYPE svg PUBLIC "-//W3C//DTD SVG 20010904//EN"
 "http://www.w3.org/TR/2001/REC-SVG-20010904/DTD/svg10.dtd">
<svg version="1.0" xmlns="http://www.w3.org/2000/svg"
 width="127.000000pt" height="127.000000pt" viewBox="0 0 127.000000 127.000000"
 preserveAspectRatio="xMidYMid meet">
<metadata>
Created by potrace 1.11, written by Peter Selinger 2001-2013
</metadata>
<g transform="translate(0.000000,127.000000) scale(0.100000,-0.100000)"
fill="#000000" stroke="none">
<path d="M523 1086 c-59 -51 -182 -158 -273 -236 -91 -79 -166 -149 -168 -157
-3 -10 12 -13 57 -13 l61 0 0 -265 0 -265 440 0 440 0 2 263 3 262 58 3 c36 2
57 7 57 15 0 7 -32 39 -70 71 l-70 59 0 99 0 98 -69 0 -70 0 -3 -36 -3 -36
-132 116 c-73 64 -136 116 -142 116 -5 0 -58 -42 -118 -94z m226 -281 c62 -15
171 -66 220 -104 l23 -18 -30 -34 c-26 -29 -33 -32 -49 -22 -183 123 -350 130
-511 22 -24 -16 -45 -29 -48 -29 -2 0 -19 14 -36 32 l-30 31 23 18 c47 36 158
89 215 103 78 19 145 19 223 1z m-3 -130 c52 -15 144 -69 144 -83 0 -5 -11
-22 -25 -38 l-25 -29 -62 35 c-56 31 -71 35 -138 35 -66 0 -82 -4 -132 -32
-32 -18 -60 -33 -62 -33 -12 0 -57 53 -53 63 6 18 97 70 146 83 63 17 148 17
207 -1z m2 -140 c28 -13 52 -28 52 -33 0 -16 -41 -62 -55 -62 -7 0 -26 7 -41
15 -37 19 -91 19 -128 0 -15 -8 -32 -15 -38 -15 -13 0 -58 47 -58 60 0 6 24
22 53 35 70 33 144 33 215 0z m-42 -153 c8 -9 14 -34 14 -54 0 -28 -6 -41 -26
-57 -58 -45 -134 -11 -134 59 0 78 100 113 146 52z"/>
</g>
</svg>
